<?xml version="1.0" encoding="UTF-8" standalone="no"?>
<!-- Generator: Adobe Illustrator 17.0.0, SVG Export Plug-In . SVG Version: 6.00 Build 0)  -->

<svg
   xmlns:dc="http://purl.org/dc/elements/1.1/"
   xmlns:cc="http://creativecommons.org/ns#"
   xmlns:rdf="http://www.w3.org/1999/02/22-rdf-syntax-ns#"
   xmlns:svg="http://www.w3.org/2000/svg"
   xmlns="http://www.w3.org/2000/svg"
   xmlns:sodipodi="http://sodipodi.sourceforge.net/DTD/sodipodi-0.dtd"
   xmlns:inkscape="http://www.inkscape.org/namespaces/inkscape"
   version="1.1"
   id="Layer_2"
   x="0px"
   y="0px"
   width="118"
   height="60"
   viewBox="0 0 118 60.000001"
   enable-background="new 0 0 119.99 63.835"
   xml:space="preserve"
   inkscape:version="0.91 r13725"
   sodipodi:docname="Vector_Book_blue.svg"><metadata
     id="metadata3345"><rdf:RDF><cc:Work
         rdf:about=""><dc:format>image/svg+xml</dc:format><dc:type
           rdf:resource="http://purl.org/dc/dcmitype/StillImage" /><dc:title></dc:title></cc:Work></rdf:RDF></metadata><defs
     id="defs3343" /><sodipodi:namedview
     pagecolor="#ffffff"
     bordercolor="#666666"
     borderopacity="1"
     objecttolerance="10"
     gridtolerance="10"
     guidetolerance="10"
     inkscape:pageopacity="0"
     inkscape:pageshadow="2"
     inkscape:window-width="1600"
     inkscape:window-height="837"
     id="namedview3341"
     showgrid="false"
     inkscape:zoom="9.2007669"
     inkscape:cx="62.494791"
     inkscape:cy="31.9175"
     inkscape:window-x="-8"
     inkscape:window-y="-8"
     inkscape:window-maximized="1"
     inkscape:current-layer="Layer_2" /><path
     d="m 5.0503732,48.574066 c 0.706,-1.65 14.6669998,-33.833 15.3329998,-35.5 0.667,-1.667 -0.667,-2.417 -1.25,-0.833 -0.583,1.583 -17.0829998,37.75 -17.9999998,39.833 -0.91600002,2.084 -0.91600002,3.5 2.667,3.5 3.583,0 49.4169998,0 49.4169998,0 l 0,2.917 11.667,0 0,-3.167 c 0,0 48.332997,0 50.082997,0 1.75,0 3.333,-0.333 1.833,-3.5 -1.5,-3.167 -16.999997,-37.417 -17.749997,-39.25 -0.75,-1.833 -2.166,-1.083 -1.583,0.334 0.583,1.417 14.999997,34.333 15.582997,35.917 0.583,1.583 1.333,4.083 -5.417,4.083 -9.082997,0 -24.999997,-6.333 -31.916997,-6.333 -6.917,0 -13.413,4.083 -16.706,8.416 -3.293,-3.083 -7.46,-8.417 -16.377,-8.417 -8.917,0 -20.25,6.25 -31.833,6.25 -4.3329998,0 -7.3979998,-0.397 -5.7499998,-4.25 z"
     id="path3337"
     style="fill:#004372;fill-opacity:1"
     inkscape:connector-curvature="0" /><path
     d="m 107.96737,44.241066 c -1.333,-3.583 -14.416997,-37.9170008 -14.416997,-37.9170008 0,0 -1.25,0.417 -3.833,0.417 -8.417,0 -17.917,-5.583 -21.667,-5.583 -3.917,0 -9.04,4.333 -9.04,4.333 0,0 -5.96,-4.333 -8.793,-4.333 -5.25,0 -12.083,5.5 -22.333,5.5 -2.25,0 -3.583,-0.333 -3.583,-0.333 0,0 -13.917,36.8330008 -14.9169998,39.3330008 -1,2.5 -1.001,4.167 2.7499998,4.167 9,0 25.25,-8.167 30.333,-8.167 9.333,0 16.543,10.5 16.543,10.5 0,0 7.957,-10.417 16.457,-10.417 8.5,0 20,8.25 30.582997,8.25 3.25,0 3.25,-2.167 1.917,-5.75 z m -51.249997,-0.75 c 0,0 -4.5,-5.5 -13.333,-5.5 -9.167,0 -22.833,8 -26.667,8 -2.167,0 -3.417,-0.5 -2.5,-3.583 0.917,-3.083 11.917,-32.5000002 11.917,-32.5000002 0,0 1.585,0.1670002 3.833,0.1670002 10.25,0 14,-4.7500008 20,-4.7500008 4.083,0 6.25,2.333 6.75,3.9999996 l 0,34.1660012 z m 44.739997,2.5 c -3.832997,0 -17.499997,-8 -26.666997,-8 -8.833,0 -13.333,5.5 -13.333,5.5 l 0,-34.1670012 c 0.5,-1.6669996 2.667,-3.9999996 6.75,-3.9999996 6,0 9.75,4.7500008 20,4.7500008 2.248,0 3.833,-0.1670002 3.833,-0.1670002 0,0 10.999997,29.4170002 11.916997,32.5000002 0.917,3.084 -0.333,3.584 -2.5,3.584 z"
     id="path3339"
     style="fill:#004372;fill-opacity:1"
     inkscape:connector-curvature="0" /></svg>