<?xml version="1.0" encoding="UTF-8" standalone="no"?>
<!-- Created with Inkscape (http://www.inkscape.org/) -->

<svg
   xmlns:dc="http://purl.org/dc/elements/1.1/"
   xmlns:cc="http://creativecommons.org/ns#"
   xmlns:rdf="http://www.w3.org/1999/02/22-rdf-syntax-ns#"
   xmlns:svg="http://www.w3.org/2000/svg"
   xmlns="http://www.w3.org/2000/svg"
   xmlns:sodipodi="http://sodipodi.sourceforge.net/DTD/sodipodi-0.dtd"
   xmlns:inkscape="http://www.inkscape.org/namespaces/inkscape"
   width="316"
   height="48"
   id="svg9779"
   sodipodi:version="0.32"
   inkscape:version="0.91 r13725"
   version="1.0"
   sodipodi:docname="morganstanley.svg"
   inkscape:output_extension="org.inkscape.output.svg.inkscape">
  <defs
     id="defs9781">
    <inkscape:perspective
       sodipodi:type="inkscape:persp3d"
       inkscape:vp_x="0 : 526.18109 : 1"
       inkscape:vp_y="0 : 1000 : 0"
       inkscape:vp_z="744.09448 : 526.18109 : 1"
       inkscape:persp3d-origin="372.04724 : 350.78739 : 1"
       id="perspective9787" />
  </defs>
  <sodipodi:namedview
     id="base"
     pagecolor="#ffffff"
     bordercolor="#666666"
     borderopacity="1.0"
     gridtolerance="10000"
     guidetolerance="10"
     objecttolerance="10"
     inkscape:pageopacity="0.0"
     inkscape:pageshadow="2"
     inkscape:zoom="1.4"
     inkscape:cx="132.5266"
     inkscape:cy="106.13482"
     inkscape:document-units="pt"
     inkscape:current-layer="layer1"
     showgrid="true"
     units="pt"
     inkscape:window-width="1600"
     inkscape:window-height="837"
     inkscape:window-x="-8"
     inkscape:window-y="-8"
     inkscape:window-maximized="1">
    <inkscape:grid
       type="xygrid"
       id="grid9789"
       visible="true"
       enabled="true"
       units="pt"
       spacingx="9pt"
       spacingy="9pt"
       empspacing="8" />
  </sodipodi:namedview>
  <metadata
     id="metadata9784">
    <rdf:RDF>
      <cc:Work
         rdf:about="">
        <dc:format>image/svg+xml</dc:format>
        <dc:type
           rdf:resource="http://purl.org/dc/dcmitype/StillImage" />
        <dc:title>Morgan Stanley Logo</dc:title>
        <dc:creator>
          <cc:Agent>
            <dc:title>Morgan Stanley</dc:title>
          </cc:Agent>
        </dc:creator>
        <dc:source>Frank Trampe</dc:source>
      </cc:Work>
    </rdf:RDF>
  </metadata>
  <g
     inkscape:label="Layer 1"
     inkscape:groupmode="layer"
     id="layer1"
     transform="translate(0,-42)">
    <path
       style="fill:#000000;fill-opacity:1;fill-rule:nonzero;stroke:none"
       d="m 258.81026,43.15904 c 0,0 2e-5,32.320312 0,32.320312 0,1.59691 0.83456,2.529765 1.69532,3.117188 0.92269,0.619552 2.2768,0.929705 4.10156,0.929687 1.15435,0 2.67967,-0.382812 2.67969,-0.382812 0,0 -2e-5,-2.89842 0,-2.898438 -0.45784,0.0284 -0.86317,0.05469 -1.3125,0.05469 -2.71644,0 -3.11723,-1.061235 -3.11719,-2.242188 0,0 -5e-5,-30.89842 0,-30.898437 l -4.04688,0 z m -85.47656,0.328125 c -3.05025,0 -5.80781,0.956777 -7.76562,2.679687 -1.90118,1.680578 -2.95313,4.00036 -2.95313,6.507813 5e-5,2.761622 1.11761,4.91946 3.44531,6.617187 2.05295,1.49912 4.76832,2.467045 7.38282,3.390625 4.54494,1.616633 8.80468,3.092058 8.80468,7.21875 0,1.835243 -0.62431,3.408633 -1.80468,4.484375 -1.29786,1.182983 -3.1651,1.75 -5.63282,1.75 -4.32533,0 -7.47424,-2.394875 -9.24218,-7.054687 -2e-5,0 -3.88282,1.039062 -3.88282,1.039062 0.83628,1.88979 2.25882,4.617025 4.32032,6.453125 2.2603,2.027918 5.06604,3.007813 8.58594,3.007813 4.16828,0 7.33249,-1.0752 9.40624,-3.226563 2.14985,-2.239597 2.625,-5.105747 2.625,-7.109375 0,-2.871137 -1.21362,-5.088177 -3.66406,-6.835937 -2.13932,-1.53454 -4.90765,-2.523588 -7.60156,-3.445313 -4.3894,-1.500975 -8.57785,-2.92943 -8.53125,-6.617187 0.0155,-1.719568 0.61183,-3.05816 1.69531,-3.992188 1.10422,-0.94885 2.67794,-1.421875 4.70313,-1.421875 2.12716,1.8e-5 4.02391,0.594563 5.46875,1.75 1.3287,1.052328 2.29556,2.614063 2.73437,4.375 2e-5,0 3.77344,-0.492187 3.77344,-0.492187 -1.65548,-5.643838 -5.7015,-9.078125 -11.86719,-9.078125 z m -172.9765571,0.492187 0,35.109375 4.046875,0 0,-32.101562 0.109375,0.109375 9.6250001,31.992187 3.117188,0 9.679687,-31.992187 0.05469,-0.109375 0,32.101562 4.046876,0 0,-35.109375 -6.726563,0 -8.585937,28.21875 0,0.109375 -0.05469,-0.109375 -8.5859381,-28.21875 -6.726562,0 z M 193.0212,44.69029 l 0,8.421875 -3.88281,0 0,3.226562 c 0,0 3.88281,1.8e-5 3.88281,0 0,0 0,18.046 0,19.140625 0,1.59691 0.7269,2.529765 1.58594,3.117188 0.92444,0.619552 2.27481,0.929705 4.10156,0.929687 1.15588,0 2.73434,-0.382812 2.73438,-0.382812 0,0 -4e-5,-2.89842 0,-2.898438 -0.44931,0.0284 -0.91961,0.05469 -1.36719,0.05469 -2.71994,0 -3.00785,-1.061235 -3.00781,-2.242188 0,0 -4e-5,-17.718732 0,-17.71875 l 4.375,0 0,-3.226562 -4.375,0 0,-8.421875 -4.04688,0 z M 47.443081,52.619977 c -3.407688,0 -6.295835,1.373015 -8.3125,3.9375 -1.871608,2.393318 -2.898438,5.774283 -2.898438,9.515625 1.7e-5,3.74479 1.026813,7.119595 2.898438,9.515625 2.016682,2.571275 4.904812,3.9375 8.3125,3.9375 3.421687,0 6.301102,-1.366225 8.3125,-3.9375 1.871852,-2.39603 2.898437,-5.770835 2.898437,-9.515625 -1.7e-5,-3.741342 -1.026602,-7.12229 -2.898437,-9.515625 -2.011398,-2.564485 -4.890813,-3.9375 -8.3125,-3.9375 z m 233.460939,0.05469 c -1.72971,0 -3.33813,0.31794 -4.70313,0.929687 -1.33592,0.60214 -2.52262,1.508675 -3.44531,2.679688 -1.83533,2.298257 -2.89844,5.71025 -2.89844,9.84375 -2e-5,4.600435 1.32191,8.11069 3.71875,10.445312 2.52828,2.46785 5.74983,2.953125 7.98437,2.953125 5.80647,0 8.65507,-3.141652 9.84376,-6.015625 -6e-5,0 -3.22657,-1.585937 -3.22657,-1.585937 -0.78463,1.749807 -2.58715,4.429687 -6.61719,4.429687 -2.30347,0 -4.18753,-0.94304 -5.52343,-2.679687 -1.29082,-1.68056 -2.01644,-4.006678 -2.02344,-6.78125 2e-5,1.7e-5 17.71875,0 17.71875,0 4e-5,1.7e-5 0,-2.460938 0,-2.460938 4e-5,-4.250977 -1.13204,-7.421067 -3.22656,-9.351562 -1.7833,-1.639855 -4.28509,-2.40625 -7.60156,-2.40625 z m -192.007817,0.05469 c -4.56569,0 -11.046872,3.072108 -11.046872,13.398438 0,10.026432 6.461002,13.398437 10.828122,13.398437 2.54886,1.8e-5 4.865,-1.412092 6.45313,-3.445312 -2e-5,1.7e-5 0.21875,-0.109375 0.21875,-0.109375 1e-5,1.7e-5 0,4.921875 0,4.921875 1e-5,3.45198 -2.98769,5.578125 -6.17969,5.578125 -3.10336,1.7e-5 -5.85069,-0.592498 -8.09375,-1.640625 -3e-5,0 0,3.5 0,3.5 1.88888,0.80962 4.96277,1.3125 7.60156,1.3125 7.18373,1.7e-5 10.609377,-3.953723 10.609377,-9.679688 1e-5,0 0,-26.742187 0,-26.742187 l -3.007807,0 c 0,0 -0.875,2.734375 -0.875,2.734375 -1.48469,-1.93452 -3.42848,-3.226563 -6.50782,-3.226563 z m 26.140627,0 c -5.74765,0 -8.46892,3.442985 -9.625,5.578125 0,0 3.22656,1.695313 3.22656,1.695313 0.4528,-1.22003 2.08294,-4.046875 6.45313,-4.046875 3.44592,0 5.19531,1.52082 5.19531,4.539062 0,0 0,0.929688 0,0.929688 2e-5,0 0.0282,0.28259 -0.0547,0.382812 -0.12799,0.161578 -0.49088,0.29372 -1.36719,0.382813 -4.82473,0.5383 -8.03162,1.3307 -10.39062,2.84375 -2.5609,1.645997 -4.15625,3.95052 -4.15625,7.109375 0,2.243937 1.08652,4.15912 2.51562,5.523437 1.3289,1.256448 3.1395,1.910108 5.14063,1.96875 4.25969,0.13664 7.06365,-1.636267 8.42187,-3.71875 0.1054,1.43087 0.61819,2.248453 1.75,2.84375 1.06295,0.567683 2.80634,0.454773 3.55469,0.273438 0,1.7e-5 0,-2.734375 0,-2.734375 -0.90213,-0.04505 -1.47656,-0.474023 -1.47656,-1.585938 -5e-5,0 0,-12.523437 0,-12.523437 -5e-5,0 0,-1.640625 0,-1.640625 -2e-5,-2.584453 -1.01434,-4.704368 -2.95313,-6.070313 -1.59857,-1.134385 -3.83229,-1.75 -6.23437,-1.75 z m 27.83593,0 c -2.63378,1.8e-5 -5.32918,1.36437 -7.60156,3.9375 l 0,-3.445312 -4.04687,0 0,25.921875 4.04687,0 c 4e-5,0 0,-19.25 0,-19.25 1.37708,-1.471453 4.46359,-3.9375 7.27344,-3.9375 2.81687,0 4.04688,1.381695 4.04688,4.484375 -4e-5,0 0,18.703125 0,18.703125 l 4.04687,0 c 0,0 0,-18.8125 0,-18.8125 0,-5.600648 -3.983,-7.601563 -7.76563,-7.601563 z m 73.22657,0 c -5.74443,0 -8.46519,3.442985 -9.625,5.578125 5e-5,0 3.22656,1.695313 3.22656,1.695313 0.45453,-1.22003 2.08273,-4.046875 6.45313,-4.046875 3.44552,0 5.19531,1.52082 5.19531,4.539062 -2e-5,0 0,0.929688 0,0.929688 -4e-5,0 -0.0282,0.28259 -0.10938,0.382812 -0.12626,0.161578 -0.43289,0.29372 -1.3125,0.382813 -4.82478,0.537337 -8.03185,1.3307 -10.39062,2.84375 -2.55938,1.645997 -4.15625,3.95052 -4.15625,7.109375 3e-5,2.243937 1.08456,4.158245 2.51562,5.523437 1.32894,1.256448 3.14125,1.910108 5.14063,1.96875 4.25624,0.13664 7.06366,-1.636267 8.42187,-3.71875 0.10714,1.43024 0.61621,2.248453 1.75,2.84375 1.06091,0.567683 2.80481,0.454773 3.55469,0.273438 -2e-5,1.7e-5 0,-2.734375 0,-2.734375 -0.90039,-0.04505 -1.47656,-0.474023 -1.47656,-1.585938 -2e-5,0 0,-12.523437 0,-12.523437 -2e-5,0 0,-1.640625 0,-1.640625 -4e-5,-2.584453 -1.06706,-4.704368 -3.00781,-6.070313 -1.60017,-1.134385 -3.77934,-1.75 -6.17969,-1.75 z m 27.83593,0 c -2.64074,1.8e-5 -5.32939,1.36437 -7.60156,3.9375 l 0,-3.445312 -4.04687,0 0,25.921875 4.04687,0 c -2e-5,0 0,-19.25 0,-19.25 1.37899,-1.47231 4.46009,-3.9375 7.27344,-3.9375 2.8116,0 4.04688,1.381695 4.04688,4.484375 0,0 0,18.703125 0,18.703125 l 4.04687,0 c 0,0 0,-18.8125 0,-18.8125 0,-5.600648 -3.983,-7.601563 -7.76563,-7.601563 z m -167.617179,0.10937 c -4.105938,0 -6.539313,1.591888 -8.640626,5.359375 l 0,-0.273437 0,-4.703125 -4.046874,0 0,25.867187 4.046874,0 c 0,1.8e-5 0,-14.65625 0,-14.65625 0.999041,-5.324252 3.817853,-7.820312 8.640626,-7.820312 0,0 0,-3.773438 0,-3.773438 z m 218.148439,0.328125 9.02343,25.703125 c -2e-5,0 0,0.21875 0,0.21875 -0.53923,2.463388 -2.09869,5.50431 -3.5,6.453125 -1.23751,0.839878 -2.57775,0.929688 -3.60937,0.929688 -0.4979,0 -1.52644,-0.168123 -1.96875,-0.273438 2e-5,0 0,3.117188 0,3.117188 0.5598,0.137375 1.85193,0.382812 2.67969,0.382812 1.92846,1.8e-5 3.55491,-0.482772 4.92187,-1.476562 1.63648,-1.189668 3.44946,-4.2903 4.32031,-6.945313 -3e-5,0 9.02344,-28.109375 9.02344,-28.109375 l -3.9375,0 -5.90625,19.90625 -0.0547,0.4375 -0.10937,-0.4375 -6.94531,-19.90625 -3.9375,0 z M 47.443081,55.84654 c 4.356624,0 6.945312,3.82396 6.945312,10.226562 -3.5e-5,6.404335 -2.588688,10.226563 -6.945312,10.226563 -4.349626,0 -6.945313,-3.822228 -6.945313,-10.226563 -3.5e-5,-6.402602 2.595687,-10.226562 6.945313,-10.226562 z m 41.726562,0.05469 c 2.28314,0 4.2875,0.98651 6.17969,3.335938 1e-5,0 0,12.359375 0,12.359375 -1.04736,2.98109 -4.0471,4.703125 -6.17969,4.703125 -4.17328,0 -7.05469,-2.598628 -7.05469,-10.390625 5e-5,-6.551965 2.58586,-10.007813 7.05469,-10.007813 z m 191.843747,0 c 4.63643,0 6.70927,2.451733 6.72656,7.765625 6e-5,0 -13.61719,0 -13.61719,0 0.35263,-5.309587 2.57732,-7.765625 6.89063,-7.765625 z M 120.3962,65.034043 c 4e-5,0 0,6.5625 0,6.5625 -0.18655,2.265655 -4.4205,5.007782 -7.875,4.8125 -1.90594,-0.104528 -3.74237,-1.63926 -3.9375,-4.15625 -0.31631,-4.206073 2.84419,-5.95238 9.89844,-6.726563 0.4907,-0.04492 1.44046,-0.219135 1.91406,-0.492187 z m 101.0625,0 c 2e-5,0 0,6.5625 0,6.5625 -0.18656,2.264657 -4.4205,5.007782 -7.875,4.8125 -1.90272,-0.105403 -3.74762,-1.640135 -3.9375,-4.15625 -0.32131,-4.206073 2.84265,-5.95238 9.89844,-6.726563 0.48732,-0.04492 1.44398,-0.219135 1.91406,-0.492187 z"
       id="path813"
       inkscape:connector-curvature="0" />
    <rect
       style="fill:none;fill-opacity:1;stroke:none;stroke-width:22.5;stroke-linecap:round;stroke-linejoin:round;stroke-miterlimit:4;stroke-dasharray:none;stroke-opacity:1"
       id="rect10562"
       width="360"
       height="90"
       x="0"
       y="0" />
  </g>
</svg>
