<?xml version="1.0" encoding="UTF-8" standalone="no"?>
<svg
   xmlns:dc="http://purl.org/dc/elements/1.1/"
   xmlns:cc="http://creativecommons.org/ns#"
   xmlns:rdf="http://www.w3.org/1999/02/22-rdf-syntax-ns#"
   xmlns:svg="http://www.w3.org/2000/svg"
   xmlns="http://www.w3.org/2000/svg"
   xmlns:sodipodi="http://sodipodi.sourceforge.net/DTD/sodipodi-0.dtd"
   xmlns:inkscape="http://www.inkscape.org/namespaces/inkscape"
   version="1.0"
   width="4458.3325pt"
   height="1748.196pt"
   viewBox="0 0 4458.3325 1748.196"
   preserveAspectRatio="xMidYMid meet"
   id="svg4136"
   inkscape:version="0.91 r13725"
   sodipodi:docname="Nsigma_Grand_Logo.svg">
  <defs
     id="defs4204" />
  <sodipodi:namedview
     pagecolor="#ffffff"
     bordercolor="#666666"
     borderopacity="1"
     objecttolerance="10"
     gridtolerance="10"
     guidetolerance="10"
     inkscape:pageopacity="0"
     inkscape:pageshadow="2"
     inkscape:window-width="1600"
     inkscape:window-height="837"
     id="namedview4202"
     showgrid="false"
     inkscape:zoom="0.10771889"
     inkscape:cx="4452.8663"
     inkscape:cy="1634.1312"
     inkscape:window-x="-8"
     inkscape:window-y="-8"
     inkscape:window-maximized="1"
     inkscape:current-layer="g4140"
     fit-margin-top="0"
     fit-margin-left="0"
     fit-margin-right="0"
     fit-margin-bottom="0" />
  <metadata
     id="metadata4138">
Created by potrace 1.13, written by Peter Selinger 2001-2015
<rdf:RDF>
  <cc:Work
     rdf:about="">
    <dc:format>image/svg+xml</dc:format>
    <dc:type
       rdf:resource="http://purl.org/dc/dcmitype/StillImage" />
    <dc:title></dc:title>
  </cc:Work>
</rdf:RDF>
</metadata>
  <g
     transform="matrix(0.1,0,0,-0.1,-184,2632.6568)"
     id="g4140"
     style="fill:#000000;stroke:none">
    <path
       d="m 35050,26324 c -902,-49 -1579,-162 -2350,-394 -2629,-792 -4706,-2661 -5662,-5095 -96,-243 -180,-487 -170,-496 10,-9 421,-133 425,-128 2,2 27,74 56,159 283,829 728,1636 1290,2340 215,269 517,594 791,851 497,466 1049,869 1660,1209 1786,995 3885,1341 5915,974 1510,-273 2896,-915 4050,-1878 128,-107 387,-340 444,-400 l 35,-36 314,0 314,0 -132,140 c -215,227 -560,542 -844,768 -1430,1140 -3184,1818 -5086,1968 -181,14 -896,26 -1050,18 z"
       id="path4142"
       inkscape:connector-curvature="0" />
    <path
       d="m 44389,23394 c 94,-98 171,-180 171,-183 0,-3 -2098,-6 -4663,-6 -4410,0 -4671,-1 -4827,-18 -327,-35 -522,-69 -808,-139 -1138,-277 -2133,-897 -2902,-1808 -108,-129 -268,-341 -355,-473 -50,-75 -56,-90 -44,-101 8,-7 139,-97 291,-200 l 277,-186 77,112 c 243,352 547,693 854,958 688,594 1569,988 2480,1110 440,58 961,51 1395,-21 648,-107 1245,-333 1813,-687 1148,-716 1947,-1888 2201,-3230 94,-492 111,-965 55,-1462 -108,-954 -497,-1853 -1125,-2600 -354,-422 -812,-803 -1299,-1083 -514,-295 -1106,-498 -1725,-591 -425,-64 -980,-60 -1432,9 -870,133 -1725,528 -2413,1115 -98,84 -420,399 -420,412 0,4 15,5 33,3 17,-3 111,-12 207,-20 96,-8 198,-18 225,-21 47,-5 1,28 -909,635 -528,352 -962,639 -964,637 -2,-3 32,-107 76,-233 44,-125 117,-334 162,-463 45,-129 97,-278 115,-330 18,-52 121,-344 227,-649 l 193,-555 16,150 c 9,82 22,209 29,282 7,73 16,131 20,130 3,-2 61,-62 129,-134 248,-266 594,-558 916,-774 689,-462 1453,-761 2263,-885 327,-49 465,-59 837,-59 436,0 686,23 1075,99 2208,431 3939,2153 4391,4369 37,182 52,278 81,516 30,251 33,896 5,1140 -107,945 -381,1729 -870,2495 -451,705 -1116,1343 -1844,1770 -56,33 -102,63 -103,68 0,4 1425,7 3167,7 l 3168,0 -210,-211 c -116,-116 -201,-208 -190,-205 11,3 488,147 1060,320 572,173 1063,321 1090,329 57,17 63,12 -70,60 -38,14 -484,179 -990,367 -506,188 -962,357 -1014,376 l -93,34 171,-176 z"
       id="path4144"
       style="fill:#01a30f;fill-opacity:0.94117647"
       inkscape:connector-curvature="0" />
    <path
       d="m 42506,22288 c 5,-7 51,-78 104,-158 464,-698 823,-1492 1029,-2278 16,-61 27,-112 24,-112 -3,0 -78,43 -166,97 -89,53 -166,98 -171,101 -4,3 3,-15 17,-39 26,-46 824,-1476 846,-1517 7,-13 14,-22 16,-20 2,2 25,179 50,393 163,1364 181,1526 168,1508 -8,-10 -75,-125 -150,-255 -75,-130 -140,-235 -145,-232 -4,3 -8,13 -8,23 0,34 -119,450 -185,646 -75,222 -182,502 -270,700 -136,309 -363,739 -537,1016 l -84,134 -273,3 c -218,2 -271,0 -265,-10 z"
       id="path4146"
       inkscape:connector-curvature="0" />
    <path
       d="m 16320,18325 0,-2315 245,0 245,0 2,2010 3,2011 1355,-2010 1355,-2010 263,-1 262,0 0,2315 0,2315 -240,0 -240,0 0,-1937 c 0,-1644 -2,-1935 -14,-1923 -7,8 -595,880 -1306,1938 l -1293,1922 -319,0 -318,0 0,-2315 z"
       id="path4148"
       inkscape:connector-curvature="0" />
    <path
       d="m 23355,19992 c -171,-59 -283,-202 -293,-372 -11,-192 98,-352 285,-420 53,-19 77,-22 160,-18 85,3 107,8 166,37 298,143 322,552 44,728 -97,62 -257,81 -362,45 z"
       id="path4150"
       inkscape:connector-curvature="0" />
    <path
       d="m 25825,19543 c -500,-60 -923,-303 -1241,-715 -381,-492 -460,-1206 -200,-1799 195,-441 627,-838 1071,-982 317,-103 680,-116 1009,-38 312,75 633,261 854,495 l 54,57 -5,-258 c -5,-294 -14,-346 -91,-509 -59,-125 -114,-202 -221,-313 -234,-243 -500,-376 -817,-411 -132,-14 -202,-13 -325,6 -204,30 -387,100 -564,217 -244,161 -415,364 -489,582 l -17,50 -226,3 c -125,1 -227,-1 -227,-6 0,-25 67,-200 109,-287 221,-449 661,-783 1176,-894 303,-65 638,-61 918,10 321,81 634,264 868,506 153,159 242,300 303,483 70,210 68,181 73,1145 5,912 0,1077 -37,1253 -44,210 -144,438 -267,612 -76,106 -259,300 -373,395 -259,216 -578,356 -900,395 -78,9 -366,12 -435,3 z m 527,-476 c 200,-52 347,-128 507,-262 242,-201 403,-460 476,-765 25,-101 31,-363 12,-490 -30,-200 -101,-388 -207,-547 -92,-139 -256,-302 -395,-394 -294,-194 -706,-251 -1073,-149 -394,110 -748,440 -892,831 -54,145 -73,264 -74,454 -1,183 11,266 61,420 116,360 429,700 773,839 184,75 308,96 540,91 148,-2 190,-7 272,-28 z"
       id="path4152"
       inkscape:connector-curvature="0" />
    <path
       d="m 21524,19505 c -356,-67 -678,-336 -773,-645 -63,-205 -51,-464 33,-670 79,-197 251,-365 466,-456 42,-17 195,-68 341,-113 368,-115 510,-187 600,-308 86,-114 113,-200 112,-353 0,-95 -5,-129 -26,-195 -57,-172 -175,-291 -350,-350 -80,-26 -183,-44 -258,-45 -74,0 -197,37 -274,82 -99,59 -229,193 -280,288 -36,70 -39,82 -45,180 l -5,105 -244,3 -244,2 6,-84 c 13,-167 52,-304 127,-443 134,-250 379,-453 643,-533 128,-38 180,-45 352,-44 152,1 181,4 270,28 297,81 582,304 718,564 85,161 113,295 104,495 -18,402 -215,696 -582,868 -48,23 -214,83 -370,134 -155,52 -311,108 -346,125 -229,116 -327,281 -299,502 21,170 111,297 262,374 180,92 414,66 590,-64 101,-74 139,-144 147,-272 l 6,-85 244,-3 244,-2 -6,97 c -8,112 -26,190 -68,281 -103,229 -378,450 -655,528 -79,23 -342,28 -440,9 z"
       id="path4154"
       inkscape:connector-curvature="0" />
    <path
       d="m 29600,19509 c -631,-63 -1088,-448 -1224,-1032 -45,-188 -46,-230 -46,-1374 l 0,-1093 240,0 240,0 0,1043 c 0,1055 5,1220 36,1343 64,259 219,476 419,589 273,154 699,112 977,-95 84,-64 204,-192 247,-263 46,-78 88,-206 100,-307 7,-54 11,-480 11,-1197 l 0,-1113 245,0 245,0 0,1144 c 0,1244 -1,1219 56,1369 90,235 346,450 619,522 222,58 464,38 640,-51 193,-98 360,-306 430,-535 49,-161 48,-132 52,-1326 l 4,-1123 240,0 239,0 0,1088 c 0,1118 -2,1195 -41,1359 -124,533 -513,911 -1054,1023 -563,117 -1027,-56 -1359,-505 -33,-44 -62,-84 -66,-88 -4,-4 -38,34 -76,85 -294,397 -702,584 -1174,537 z"
       id="path4156"
       inkscape:connector-curvature="0" />
    <path
       d="m 35480,19514 c -14,-2 -59,-9 -100,-15 -339,-48 -655,-205 -924,-460 -391,-371 -576,-793 -576,-1312 1,-465 142,-835 452,-1185 234,-264 574,-474 885,-547 232,-55 496,-70 705,-40 396,56 712,214 1003,500 53,52 98,95 101,95 2,0 4,-119 4,-265 l 0,-265 220,0 220,0 0,935 c 0,611 -4,970 -11,1037 -37,348 -197,679 -458,951 -294,307 -624,485 -1026,553 -85,14 -441,28 -495,18 z m 416,-445 c 450,-62 872,-413 1034,-859 61,-167 74,-245 74,-470 1,-220 -8,-281 -68,-457 -60,-177 -194,-380 -347,-529 -190,-184 -358,-279 -603,-342 -92,-24 -118,-26 -301,-26 -186,0 -208,2 -310,28 -266,68 -469,187 -660,388 -285,299 -412,685 -365,1103 38,330 190,615 446,840 208,182 432,287 689,324 87,12 321,13 411,0 z"
       id="path4158"
       inkscape:connector-curvature="0" />
    <path
       d="m 23260,17480 0,-1470 230,0 230,0 0,1470 c 0,809 -2,1470 -5,1470 -2,0 -30,-7 -62,-15 -74,-19 -251,-19 -323,0 -30,8 -58,15 -62,15 -5,0 -8,-661 -8,-1470 z"
       id="path4160"
       inkscape:connector-curvature="0" />
    <path
       d="m 43596,14957 c -109,-336 -230,-631 -402,-985 -177,-365 -317,-610 -529,-932 -318,-482 -602,-827 -1040,-1266 -417,-418 -750,-694 -1215,-1010 -1285,-871 -2771,-1371 -4329,-1455 -242,-13 -892,-7 -1091,10 -1376,120 -2590,504 -3725,1179 -607,361 -1097,744 -1616,1262 -347,346 -582,617 -842,973 -183,250 -488,728 -468,735 4,1 99,-18 211,-43 111,-26 204,-45 206,-42 5,4 -1289,1128 -1293,1123 -1,-1 87,-431 336,-1626 12,-58 20,-79 24,-65 4,11 29,110 57,219 28,110 52,201 54,203 1,2 38,-56 81,-129 236,-397 565,-848 903,-1238 167,-193 660,-684 847,-844 902,-772 1855,-1318 2965,-1701 989,-340 2147,-514 3174,-475 298,11 331,13 581,36 1694,158 3340,816 4685,1873 360,282 869,764 1155,1091 766,878 1322,1844 1696,2949 32,96 59,181 59,191 0,12 -48,32 -209,83 -115,37 -211,67 -213,67 -1,0 -30,-82 -62,-183 z"
       id="path4162"
       inkscape:connector-curvature="0" />
    <path
       d="m 6729,14270 c -116,-35 -170,-183 -106,-292 31,-54 107,-98 169,-98 110,0 198,89 198,200 0,136 -129,230 -261,190 z"
       id="path4164"
       style="fill:#01a30f;fill-opacity:0.94117647"
       inkscape:connector-curvature="0" />
    <path
       d="m 23399,14252 c -43,-22 -59,-38 -81,-81 -35,-66 -35,-112 -3,-177 95,-190 375,-126 375,86 0,82 -47,153 -122,185 -56,23 -108,19 -169,-13 z"
       id="path4166"
       style="fill:#01a30f;fill-opacity:0.94117647"
       inkscape:connector-curvature="0" />
    <path
       d="m 2868,13228 -3,-543 -29,-57 c -37,-74 -107,-144 -176,-177 -49,-23 -67,-26 -160,-26 -123,0 -169,17 -239,88 -73,73 -131,228 -131,348 l 0,39 -145,0 -145,0 0,-54 c 0,-129 48,-296 120,-418 126,-211 326,-318 575,-305 276,14 498,179 597,443 22,58 23,71 28,632 l 5,572 -147,0 -147,0 -3,-542 z"
       id="path4168"
       style="fill:#01a30f;fill-opacity:0.94117647"
       inkscape:connector-curvature="0" />
    <path
       d="m 3310,13268 5,-503 31,-87 c 92,-257 301,-455 560,-530 106,-30 334,-32 434,-3 85,24 192,75 255,119 27,20 53,36 57,36 5,0 8,-40 8,-90 l 0,-90 145,0 145,0 0,825 0,825 -145,0 -145,0 0,-442 c 0,-485 -3,-516 -59,-626 -60,-120 -185,-224 -313,-263 -57,-18 -88,-20 -186,-17 -114,3 -119,4 -203,45 -143,70 -246,192 -284,338 -12,49 -15,138 -15,512 l 0,453 -147,0 -148,0 5,-502 z"
       id="path4170"
       style="fill:#01a30f;fill-opacity:0.94117647"
       inkscape:connector-curvature="0" />
    <path
       d="m 5090,12945 0,-825 145,0 145,0 0,468 c 0,257 5,496 10,531 26,180 169,322 355,353 122,20 248,-23 344,-119 69,-70 107,-145 121,-238 5,-38 10,-278 10,-532 l 0,-463 145,0 145,0 0,493 c 0,281 -4,519 -10,554 -27,164 -85,278 -205,399 -66,67 -97,89 -175,127 -223,109 -478,101 -678,-22 -27,-17 -52,-31 -56,-31 -3,0 -6,29 -6,65 l 0,65 -145,0 -145,0 0,-825 z"
       id="path4172"
       style="fill:#01a30f;fill-opacity:0.94117647"
       inkscape:connector-curvature="0" />
    <path
       d="m 7717,13750 c -302,-64 -559,-321 -622,-625 -19,-92 -19,-267 1,-363 59,-289 287,-530 581,-614 112,-32 333,-32 446,0 269,77 482,288 569,562 20,65 23,95 23,230 0,179 -12,238 -76,368 -168,343 -542,522 -922,442 z m 360,-304 c 225,-82 365,-296 350,-536 -14,-220 -159,-406 -366,-471 -84,-26 -226,-28 -308,-4 -179,52 -328,204 -367,375 -44,192 1,363 131,501 75,79 187,142 283,158 82,14 200,4 277,-23 z"
       id="path4174"
       style="fill:#01a30f;fill-opacity:0.94117647"
       inkscape:connector-curvature="0" />
    <path
       d="m 8860,12945 0,-826 148,3 147,3 2,335 2,335 123,3 123,2 340,-340 340,-340 205,0 205,0 -335,335 c -184,184 -332,337 -328,340 3,3 31,10 63,15 140,23 277,125 341,255 139,280 -12,612 -313,690 -47,12 -147,15 -560,15 l -503,0 0,-825 z m 993,524 c 44,-12 102,-60 124,-103 9,-17 16,-53 16,-81 0,-28 -7,-64 -16,-81 -20,-39 -79,-91 -115,-101 -15,-5 -179,-8 -365,-8 l -337,0 -1,180 c 0,99 0,186 0,193 1,16 636,17 694,1 z"
       id="path4176"
       style="fill:#01a30f;fill-opacity:0.94117647"
       inkscape:connector-curvature="0" />
    <path
       d="m 12505,13750 c -101,-22 -153,-42 -230,-85 -181,-101 -327,-285 -387,-485 -29,-96 -36,-301 -13,-411 59,-295 286,-536 582,-621 65,-19 101,-23 223,-22 130,0 154,3 225,27 107,36 204,92 295,169 67,58 118,115 108,122 -2,2 -59,35 -126,75 l -124,71 -51,-46 c -56,-50 -138,-95 -207,-114 -69,-19 -205,-14 -281,9 -154,48 -302,194 -344,339 l -6,22 667,0 666,0 -5,153 c -6,178 -19,236 -82,362 -92,184 -260,336 -445,404 -143,52 -320,64 -465,31 z m 347,-305 c 147,-50 289,-192 332,-332 l 7,-23 -511,0 -511,0 6,23 c 16,55 64,136 113,189 146,158 363,213 564,143 z"
       id="path4178"
       style="fill:#01a30f;fill-opacity:0.94117647"
       inkscape:connector-curvature="0" />
    <path
       d="m 13640,12945 0,-825 145,0 145,0 0,463 c 0,254 5,494 10,532 26,183 163,323 350,357 207,39 428,-122 470,-342 6,-31 10,-252 10,-531 l 0,-479 146,0 145,0 -3,538 -3,537 -27,80 c -39,115 -92,199 -183,291 -66,67 -97,89 -175,127 -224,109 -478,101 -679,-23 -26,-17 -51,-30 -55,-30 -4,0 -6,29 -4,65 l 3,65 -147,0 -148,0 0,-825 z"
       id="path4180"
       style="fill:#01a30f;fill-opacity:0.94117647"
       inkscape:connector-curvature="0" />
    <path
       d="m 15200,13625 0,-145 200,0 200,0 0,-680 0,-680 145,0 145,0 2,678 3,677 208,3 207,2 0,145 0,145 -555,0 -555,0 0,-145 z"
       id="path4182"
       style="fill:#01a30f;fill-opacity:0.94117647"
       inkscape:connector-curvature="0" />
    <path
       d="m 16450,12945 0,-825 145,0 145,0 0,340 0,340 128,0 127,0 335,-340 335,-341 210,1 210,0 -339,339 -338,339 67,11 c 178,31 316,148 376,317 30,85 29,236 -2,319 -58,155 -174,264 -328,307 -59,16 -112,18 -568,18 l -503,0 0,-825 z m 1020,513 c 24,-13 58,-40 74,-61 28,-35 31,-45 31,-112 0,-67 -3,-76 -31,-112 -65,-80 -55,-78 -449,-78 l -350,0 -3,180 c -1,98 0,185 2,192 4,10 78,13 344,13 331,0 339,0 382,-22 z"
       id="path4184"
       style="fill:#01a30f;fill-opacity:0.94117647"
       inkscape:connector-curvature="0" />
    <path
       d="m 18870,13751 c -264,-57 -488,-247 -589,-498 -41,-102 -56,-185 -56,-313 1,-239 86,-436 259,-598 151,-141 306,-206 516,-219 166,-9 309,27 453,114 75,45 232,192 219,205 -5,5 -63,40 -128,78 l -118,68 -45,-40 c -102,-89 -204,-129 -333,-129 -151,-1 -273,49 -377,153 -56,55 -131,178 -131,214 0,12 110,14 666,14 l 667,0 -6,148 c -5,153 -23,240 -69,340 -81,179 -277,365 -448,428 -144,52 -338,66 -480,35 z m 324,-296 c 133,-40 266,-150 324,-267 53,-108 103,-98 -473,-98 -420,0 -505,2 -505,14 0,35 74,156 128,210 145,143 342,196 526,141 z"
       id="path4186"
       style="fill:#01a30f;fill-opacity:0.94117647"
       inkscape:connector-curvature="0" />
    <path
       d="m 20010,12945 0,-825 145,0 145,0 0,339 0,340 378,3 c 357,4 380,5 434,25 153,57 267,181 308,333 20,72 16,205 -9,278 -53,156 -173,270 -330,314 -59,16 -112,18 -568,18 l -503,0 0,-825 z m 1008,520 c 82,-35 126,-107 120,-197 -5,-65 -38,-117 -99,-153 -32,-19 -52,-20 -384,-20 l -350,0 -3,193 -2,192 340,0 c 285,0 347,-3 378,-15 z"
       id="path4188"
       style="fill:#01a30f;fill-opacity:0.94117647"
       inkscape:connector-curvature="0" />
    <path
       d="m 21580,12945 0,-825 145,0 145,0 0,340 0,340 122,0 123,0 340,-340 341,-340 201,2 201,3 -330,334 c -181,183 -327,335 -325,337 2,3 29,9 58,14 142,23 253,97 330,218 87,137 92,354 12,492 -40,69 -127,154 -192,189 -113,60 -126,61 -673,61 l -498,0 0,-825 z m 1017,510 c 141,-71 151,-248 18,-330 l -48,-30 -346,0 -346,0 -3,193 -2,192 338,0 338,0 51,-25 z"
       id="path4190"
       style="fill:#01a30f;fill-opacity:0.94117647"
       inkscape:connector-curvature="0" />
    <path
       d="m 24315,13763 c -141,-22 -243,-72 -321,-155 -145,-157 -152,-389 -17,-539 70,-77 141,-106 483,-199 235,-64 269,-78 319,-136 27,-30 31,-43 31,-90 0,-64 -16,-99 -64,-141 -63,-56 -135,-77 -271,-77 -162,-1 -230,19 -302,89 -42,41 -55,62 -73,120 -12,39 -24,109 -27,158 l -6,87 -147,0 -147,0 4,-52 c 23,-333 122,-522 326,-624 202,-102 539,-99 739,8 153,82 240,204 257,363 21,193 -40,341 -180,434 -82,55 -177,89 -455,166 -246,68 -276,81 -289,132 -23,95 88,166 260,167 189,1 269,-73 282,-259 l 6,-85 148,0 c 82,0 149,2 149,4 0,51 -26,223 -41,274 -54,175 -171,290 -345,338 -58,15 -260,27 -319,17 z"
       id="path4192"
       style="fill:#01a30f;fill-opacity:0.94117647"
       inkscape:connector-curvature="0" />
    <path
       d="m 25890,13751 c -234,-50 -434,-202 -553,-422 -117,-213 -121,-534 -10,-754 104,-205 296,-363 520,-427 104,-30 326,-32 418,-4 147,45 264,116 374,227 33,34 61,65 61,68 0,3 -58,38 -127,78 l -126,72 -51,-45 c -28,-25 -85,-62 -126,-82 -69,-34 -83,-37 -181,-40 -168,-6 -289,40 -402,154 -50,51 -127,179 -127,212 0,9 162,12 665,12 l 665,0 0,106 c 0,261 -66,436 -228,606 -42,43 -108,101 -148,127 -173,116 -406,158 -624,112 z m 259,-282 c 121,-19 251,-93 327,-186 40,-48 105,-173 98,-185 -8,-13 -1014,-10 -1014,3 0,30 69,150 114,198 88,93 192,150 314,171 68,11 89,11 161,-1 z"
       id="path4194"
       style="fill:#01a30f;fill-opacity:0.94117647"
       inkscape:connector-curvature="0" />
    <path
       d="m 6885,13714 c -41,-16 -164,-15 -212,1 l -23,7 0,-801 0,-801 145,0 145,0 0,805 c 0,443 -3,805 -7,804 -5,0 -26,-7 -48,-15 z"
       id="path4196"
       style="fill:#01a30f;fill-opacity:0.94117647"
       inkscape:connector-curvature="0" />
    <path
       d="m 23590,13713 c -46,-15 -186,-14 -222,2 -17,7 -18,-35 -18,-794 l 0,-801 145,0 145,0 0,805 c 0,443 -1,805 -2,804 -2,-1 -23,-8 -48,-16 z"
       id="path4198"
       style="fill:#01a30f;fill-opacity:0.94117647"
       inkscape:connector-curvature="0" />
    <path
       d="m 10760,12975 0,-145 350,0 350,0 0,145 0,145 -350,0 -350,0 0,-145 z"
       id="path4200"
       style="fill:#01a30f;fill-opacity:0.94117647"
       inkscape:connector-curvature="0" />
  </g>
</svg>
